Format                                   : Matroska
Format version                           : Version 2
File size                                : 1.04 GiB
Duration                                 : 1h 45mn
Overall bit rate                         : 1 404 Kbps
Movie name                               : The Last Seduction (1994).Unrated.720p.x264.[Hindi-English-Spanish].by Sony0014 ExclusivE
Codec ID                                 : V_MPEG4/ISO/AVC
Duration                                 : 1h 45mn
Bit rate                                 : 931 Kbps
Width                                    : 1 280 pixels
Height                                   : 720 pixels
Display aspect ratio                     : 16:9
Frame rate                               : 25.000 fps
Color space                              : YUV
Chroma subsampling                       : 4:2:0
Bit depth                                : 8 bits
Title                                    : K@rtik
Codec ID                                 : A_AC3
Duration                                 : 1h 45mn
Bit rate mode                            : Constant
Bit rate                                 : 224 Kbps
Channel(s)                               : 2 channels
Channel positions                        : Front: L R
Sampling rate                            : 48.0 KHz
Bit depth                                : 16 bits
Compression mode                         : Lossy
Delay relative to video                  : 4ms
Stream size                              : 169 MiB (16%)
Title                                    : K@rtik
Language                                 : Hind

Codec ID                                 : A_AC3
Duration                                 : 1h 45mn
Bit rate mode                            : Constant
Bit rate                                 : 128 Kbps
Channel(s)                               : 2 channels
Channel positions                        : Front: L R
Sampling rate                            : 48.0 KHz
Bit depth                                : 16 bits
Compression mode                         : Lossy
Stream size                              : 96.6 MiB (9%)
Title                                    : K@rtik
Language                                 : English

Codec ID                                 : A_AC3
Duration                                 : 1h 45mn
Bit rate mode                            : Constant
Bit rate                                 : 128 Kbps
Channel(s)                               : 2 channels
Channel positions                        : Front: L R
Sampling rate                            : 48.0 KHz
Bit depth                                : 16 bits
Compression mode                         : Lossy
Stream size                              : 96.6 MiB (9%)
Title                                    : K@rtik
Language                                 : Spanish 
http://imageshack.us/a/img820/1139/99886331.png 
http://imageshack.us/a/img716/248/25171002.png 
http://imageshack.us/a/img641/5420/15897295.png 
http://imageshack.us/a/img819/2161/82996180.png 
http://imageshack.us/a/img15/9012/39124296.png 
http://imageshack.us/a/img32/6134/63110705.png 
http://imageshack.us/a/img41/6427/41090412.png 
http://imageshack.us/a/img716/6695/80882105.png 
http://imageshack.us/a/img829/7734/72942642.png 
http://imageshack.us/a/img850/6868/69403418.png 
http://imageshack.us/a/img525/8378/95303863.png 
http://imageshack.us/a/img849/9513/57364019.png
